<?xml version="1.0" encoding="utf-8"?>
<!-- Generator: Adobe Illustrator 24.2.3, SVG Export Plug-In . SVG Version: 6.00 Build 0)  -->
<svg version="1.1" id="Capa_1" xmlns="http://www.w3.org/2000/svg" xmlns:xlink="http://www.w3.org/1999/xlink" x="0px" y="0px"
	 viewBox="0 0 413.5 79.6" style="enable-background:new 0 0 413.5 79.6;" xml:space="preserve">
<style type="text/css">
	.st0{fill:#FFFFFF;}
</style>
<path class="st0" d="M356.4,46.6c-2.5,0.5-1.9,2-1.9,3.2c-0.1,6.2,0,12.3-0.1,18.5c0,4.1-1.2,5.2-5.4,5.4c-3.3,0.1-5.1-1.7-5.1-5.4
	c-0.1-18.1,0-36.2-0.1-54.4c0-2.8-0.2-5.6-0.4-8.3c-0.1-2.4,0.9-4.7,3.2-4.6c6.2,0.1,12.5-1.1,18.6,1c4.9,1.7,8.1,5.3,8.6,10
	c0.8,9.2,1.3,18.5,0.1,27.8c-0.2,2.6-1.8,4.9-4,6.1c-1.9,1-2.5,2-1.7,4.4c2,6.4,3.4,12.9,5.1,19.3c0.7,2.7,0.8,5.1-2.7,5.9
	c-4,0.9-7-0.8-7.9-4.1C360.7,63.1,358.6,54.9,356.4,46.6z M354.5,12.8v19.3c0,4,0,3.9,5.4,4.3c3.2,0.2,4-1.6,4-4.3
	c0-4.1,0-8.1,0-12.2C364,13.1,361.6,11.2,354.5,12.8L354.5,12.8z"/>
<path class="st0" d="M38.6,38c0-7.8-0.3-15.6,0.1-23.3c0.3-8.2,4.9-13.5,14-14.6C60-0.8,67.8,5.2,68.3,12.4
	c0.6,9.3,0.4,18.6,0.4,27.8c0,6.7-0.1,13.5-0.2,20.2c0,7.6-6,13.9-13.6,14.2c-11.5,0.8-16.5-4-16.5-15.4c0-7.1,0-14.2,0-21.3
	L38.6,38z M58,37.5L58,37.5c0-6.6,0-13.2,0-19.8c0-3.4-2-5.9-4.6-5.8c-2.6,0.1-4.4,2.5-4.5,5.7c0,13.3-0.1,26.7-0.1,40
	c0,3,2.1,5.7,4.3,5.9c2.5,0.1,4.8-2.6,4.8-5.7C58,50.9,58,44.2,58,37.5L58,37.5z"/>
<path class="st0" d="M199.5,2.7c0.9-1.4,2.5-2.2,4.1-2c4.4,0,8.8-0.1,13.2,0c7.4,0.3,13.3,6.3,13.4,13.6c0,3.4-0.1,6.7,0,10.1
	c0.2,4.4-1,8.2-5.1,10.8c7.3,6.3,7.2,14,4.3,21.9c-1.8,4.9-6.1,6.8-11.1,7c-5.1,0.2-10.2,0-15.3,0.1c-1.7,0-2.9-0.5-3.5-2.2
	C199.5,42.3,199.5,22.5,199.5,2.7z M210.2,11.9v16.4c3.3,0,6.6,1.2,8.8-2c1.1-1.5,1-10.6,0-12.2C216.8,10.7,213.4,11.8,210.2,11.9z
	 M210.1,53.5c3.2-0.7,6.8,1.8,8.9-1.8c1.7-2.9,1.4-6.3-0.2-9.3c-2-3.7-5.4-2.7-8.7-2.6V53.5z"/>
<path class="st0" d="M164.6,40c2.1,6.2,4,12.2,6.1,18.2c1,2.8,0.5,5.1-2.2,6.4c-2.6,1.3-6.9-0.1-7.9-2.9c-2.3-6.2-4.3-12.5-5.9-18.9
	c-0.3-1.2-0.2-2.9-2.7-3.1V53c0,2.5,0.1,5.1,0,7.7c-0.1,4-1.6,5.2-6.1,5c-3.3-0.1-4.7-1.7-4.7-5.4c0.1-17.8,0.1-35.5,0.2-53.3
	c0-5.2,1.1-6.3,6.3-6.3c3.7,0,7.4,0,11.1,0c7.9,0,13.2,5.4,13.1,13.4c0,4.2-0.1,8.4-0.1,12.5C171.9,33.3,170.3,36.4,164.6,40z
	 M152.1,12.2c0,5.1,0.1,10.1,0,15.2c0,2.2,1.9,3.4,2.9,3c2.1-0.8,5.8,0.8,6.1-2.9c0.3-4,0.3-8.1,0.1-12.1c0.1-1.8-1.3-3.4-3.1-3.5
	c-0.1,0-0.3,0-0.4,0C155.9,11.5,153.9,11.7,152.1,12.2L152.1,12.2z"/>
<path class="st0" d="M133.3,34.9c0,6.1,0,12.3,0,18.5c0,9.4-6.9,14.9-16,15s-14.1-6.5-14.1-14.7c0-13,0-26,0-39
	c0.1-8.4,6.4-14.5,14.9-14.6s14.9,5.9,15.2,14.3c0.1,3.5,0,7,0,10.5L133.3,34.9L133.3,34.9z M122.9,34.2L122.9,34.2
	c0-5.7,0-11.4,0-17.1c0-3.2-1.9-5.2-4.7-5.3c-2.5-0.1-4.3,2-4.3,5.1c0,11.5,0,23,0,34.5c0,3.3,1.8,5.1,4.8,5.1
	c2.4,0,4.3-2.4,4.3-5.3C122.9,45.5,122.9,39.9,122.9,34.2z"/>
<path class="st0" d="M291.4,41.8c-3,4.9-2.7,9.5-2.7,14.1c0,2,0,3.9,0,5.9c0,3.7-1.4,5-5,5.1c-4.1,0.1-5.9-1.4-6-5
	c-0.1-2.2,0-4.4,0-6.6c0-16.1,0-32.3-0.1-48.4c0-5.1,1.1-6.3,5.8-6.4c4,0,5.3,1.6,5.3,6.6c0,5.8,0,11.7,0.3,17.6
	c3.6-6.4,5.8-13.3,8.7-19.9c1.8-4,3-4.8,7.2-4.3c2.8,0.4,4.1,2.2,3.2,4.9c-2.5,7.7-5.4,15.3-8.8,22.7c-0.5,1-0.6,2.1-0.1,3.1
	c3.4,10.7,6.5,21.5,9.7,32.3c0.8,2-0.3,4.3-2.3,5.1c0,0-0.1,0-0.1,0c-2.7,1.2-6.7-0.1-7.8-2.7c-1.1-2.8-2.1-5.6-2.9-8.5
	C294.3,52.4,292.9,47.4,291.4,41.8z"/>
<path class="st0" d="M0,40.5c0-7.9-0.1-15.8,0-23.7C0.2,4.6,9.7-2.3,21.2,1.3c5.3,1.7,9.1,6.5,9.5,12.1c0.2,3.1,0.1,6.3,0,9.4
	c-0.1,3.4-2,5-5.3,5.1c-3.8,0.1-5-0.9-5.3-4.7c-0.1-1.6-0.1-3.2,0-4.9c0.2-3.7-1.7-6.4-4.7-6.5c-2.2-0.1-4.7,2.9-4.8,5.9
	c-0.1,3.6-0.1,7.2-0.1,10.8c0,11,0,22.1-0.1,33.1c0,3.5,2,6,4.8,6s4.5-2.2,4.7-5.8c0.1-2.1,0-4.2,0.1-6.3c0.3-3.3,2-4.7,5.6-4.6
	c3.2,0.1,5.2,1.8,5,4.8c-0.2,4.6,0.6,9.2-1.2,13.7c-3.2,7.9-11.6,10.6-17.5,9.6C3.9,77.7,0,72.4,0,63.8c0-4,0-7.9,0-11.8L0,40.5
	L0,40.5z"/>
<path class="st0" d="M253.9,0.5c5.2-0.1,6,0.3,6.9,5.5c3.2,17.8,7.5,35.3,10.1,53.2c0.4,2.9,1.4,5.6-2.5,6.6
	c-4.5,1.2-7.1-0.2-8.2-4.5c-0.7-2.9-2.1-3.8-4.9-3.3c-0.8,0.1-1.6,0.2-2.4,0.1c-3.3-0.3-5.7,0.3-6.6,4.1c-0.6,2.6-4.1,3.7-7.2,2.6
	c-2.7-1-3.4-2.9-2.8-5.8c3.7-17.5,7.2-35.1,10.7-52.7C248,1.3,248.8,0.6,253.9,0.5z M249.6,46.8c2.6,0.6,5.4,0.7,8,0.2
	c-0.9-7.4-2.2-14.7-3.9-21.9c-0.8,3.9-1.4,7.4-2.1,10.9S250.3,43,249.6,46.8z"/>
<path class="st0" d="M396.1,27.4c1.9-6.6,3.5-12.2,4.9-17.9c0.4-1.6,1-3.1,1.4-4.6c1.3-4,4.8-5.8,8.6-4.2c2.3,1,2.9,2.8,2.1,5.4
	c-3.5,12-6.7,24-10.2,35.9c-1.7,5.7-1.4,11.5-1.4,17.3c-0.1,5,0.1,10,0.1,15c0,3.9-1.1,5.2-4.3,5.3c-4.5,0.1-6.5-1.4-6.5-5.3
	c-0.1-7.6-0.2-15.1,0-22.6c0.1-4.8-1.4-9.1-2.6-13.5c-2.8-10.2-5.6-20.5-9.1-30.5c-1.2-3.4-0.3-5.9,2.1-6.7c4.4-1.4,7.2-0.4,8.4,3.4
	C391.7,11.6,393.7,19,396.1,27.4z"/>
<path class="st0" d="M324.5,42.2c-0.9,5-0.3,9.8-0.4,14.7c0,2,1.4,2.8,3.1,3c1.4,0.1,2.8,0.1,4.2,0.1c4.2,0.1,5.9,2.1,5.6,6.8
	c-0.1,3.2-1.9,4.6-5.7,4.3c-4.1-0.3-8.3-0.8-12.4-1.2c-3.2-0.3-5.1-1.9-5.3-5.3c0-1.2-0.2-2.3-0.2-3.5c0-18.4,0-36.7-0.1-55.1
	c0-3.3,1.8-5.3,5-5.3c4-0.1,7.9-0.1,11.9-0.1c4.5,0,7.1,2.6,6.8,6.5c-0.2,2.8-1.6,4.6-4.6,4.6c-2.5,0-5.1,0-7.8,0
	c-1.2,5.9-0.1,11.7-0.7,17.5c-0.2,1.7,1.7,2.4,3.6,2c3-0.7,5.1,0.7,5.9,3.5s0.4,5.5-2.5,7.3C328.9,43.2,326.8,41.3,324.5,42.2z"/>
<path class="st0" d="M86.6,59.7c2.8,0.5,5.2-0.2,7.7-0.3c3.2-0.2,5.6,2,6,5.3c0.3,2.8-1.8,5.3-4.6,5.6c-5.4,0.6-10.8,1-16.3,1.2
	c-2.4,0.1-4-1.3-4-4.2c0.1-20.5,0-40.9,0.1-61.4c0-4.3,1.6-5.5,6.2-5.4c3.5,0.1,4.9,1.7,4.9,5.6c0,16.6,0,33.2,0,49.9V59.7z"/>
</svg>
