<svg id="Capa_1" data-name="Capa 1" xmlns="http://www.w3.org/2000/svg" viewBox="0 0 413.49 404.64"><defs><style>.cls-1{fill:#f5a714;}.cls-2{fill:#1a3150;}.cls-3{fill:#ed7470;}.cls-4{fill:#ea5a44;}.cls-5{fill:#3fb1e6;}.cls-6{fill:#3ab7b6;}.cls-7{fill:#fdf9ea;}.cls-8{fill:#ea5c84;}.cls-9{fill:#4e3d8f;}.cls-10{fill:#9ed5e4;}.cls-11{fill:#edeb99;}.cls-12{fill:#502a41;}.cls-13{fill:#383486;}.cls-14{fill:#5aac86;}.cls-15{fill:#f7e234;}.cls-16{fill:#f2e95e;}</style></defs><path class="cls-1" d="M92,152.05c-2.34,7.14-6,13.87-6.63,21.54-.05.6-.72,1.14-1.1,1.7A26.55,26.55,0,0,0,71.63,173c-4,.27-8.08.22-12.11.12-2.48-.06-2.6-.52-1.18-2.71.84-5.93.95-11.93,1.94-17.87a182.63,182.63,0,0,1,5.48-23.05A100.44,100.44,0,0,1,71,116.35c3.11-6.7,6.11-13.46,10.06-19.76,2.54-4,5.69-7.74,7.21-12.38C91,83,93,81.14,93.71,78.11c2-.61,3.16-2.37,4.32-3.8,6.82-8.44,15.59-14.71,23.81-21.58,2.15,2,4.6,1.11,6.46,0a5.25,5.25,0,0,0,2.53-6.13c3.11-2.41,7.11-2.88,10.51-4.76,1.68-.92,3-2.36,5-3,6.19-2,12.05-4.62,18.55-6S177.59,29.36,184,28c11.5-2.41,23.29-1.59,35-1.55a5.47,5.47,0,0,1,1.72.14c6.49,2.07,13.39,1.77,20,3.71,4.35,1.28,9,2.16,13.18,3.8a241.19,241.19,0,0,1,27.81,12.62c.28.73.6,1.45.84,2.2,1.67,5.31,4.27,6.37,9.18,3.75,2.74,3.32,6.42,5.59,9.66,8.33a153.47,153.47,0,0,1,32.28,37.81,135,135,0,0,1,11.31,23.39,168.3,168.3,0,0,1,8.65,30.45c.89,5.22.67,10.65,2.71,15.67-.29,1.53-.59,3.06-.88,4.59-6,.08-11.95.23-17.92.2a10.84,10.84,0,0,0-6.19,1.55c-1.46-.15-2.12-1-2.56-2.38-2.15-6.86-4.91-13.56-6.47-20.54-1.36-6.07-1.13-12.44-.32-18.69-2-7.73-3.15-8.72-10-9-.63-1.45-1.2-2.93-1.9-4.35-4.78-9.74-11.66-18-18.76-26.06-3.29-3.75-7.53-6.5-11.08-9.85-6-5.67-12.9-9.79-19.71-14-6.57-4.11-14-6.71-21.36-9.16a95.4,95.4,0,0,0-29.59-5c-9.82-.06-19.53.46-29.13,2.83-5.4,1.33-10.59,3.21-15.81,5-5,1.69-10,3.28-14,6.94-3.18-.17-4.22,2.92-6.41,4.28a106.76,106.76,0,0,0-23.19,19.3,142.82,142.82,0,0,0-11.23,14.74A72.27,72.27,0,0,0,101.32,124c-7.09.35-9.39,3-9.25,10C92.18,140,92.05,146,92,152.05Z" transform="translate(-0.42 0.09)"/><path class="cls-2" d="M92,152.05c0-6,.15-12,0-18.06-.14-7.06,2.16-9.66,9.24-10l4.85,0,40.23.1h35.46c-3.74-8.2-4.33-13.21-2.68-21.57.15-.17.38-.32.43-.52,3.94-15.33,21.23-23.2,36.74-17.72,8.14,2.87,13,9,16.54,16.41,0,.38.05.73.57.44l-.18,0c.55,5.21,1.76,10.43.13,15.63-.76,2.4-1.84,4.71-2.9,7.38h36.15l45.27-.08c6.89.33,8,1.32,10,9-.17,9.73-.49,19.47-.5,29.2q0,60.12.07,120.26c0,5.68-1.5,10.61-6.33,14.05a13.74,13.74,0,0,1-8.13,2.62c-66.34,0-132.69-.05-199,.13-9.9,0-15.8-7.68-15.75-16.33.26-37.65.18-75.3.17-112.94C92.44,164.05,92.89,158,92,152.05Zm98.71-46.59c-1.85-.15-1.68,1.48-1.79,2.41-.59,4.95.53,9.45,4.09,13.12s7.83,5,12.81,4.9c4.61-.07,9.4-.65,12.61-3.75,4.64-4.49,5.89-10.48,4.1-16.91C220.67,98.4,215.5,95,209.24,93.58c-3-.67-6.74-1.56-9.42,1.58C193.61,96.28,190.35,100,190.74,105.46Zm120.07,70.22c0-3.75,0-7.49,0-11.24.08-.66.15-1.33.23-2a.83.83,0,0,0,0-1.45c0-1.6,0-3.21,0-4.81a18.56,18.56,0,0,0,0-9.81c-.1-.23-.19-.46-.28-.7V135.33H102.17c.29,3.8.55,7.25.82,10.71-.55,6.57,0,13.15,0,19.72v9.77a4.15,4.15,0,0,0,0,2.78l-.32,26.58q.15,15.21.29,30.42c0,4.53-.06,9.06-.07,13.59,0,5.14,0,5.15,5.06,5.15Q207.48,254,307,254c1.21,0,2.55.42,3.74-.67v-18c.35-10.12.49-20.24.08-30.37q0-13.86.05-27.73C310.86,176.69,310.84,176.19,310.81,175.68ZM102.57,270.59c.07,2.67.31,5.34.19,8-.4,8.72.38,10.31,10,10.27,48.11-.21,96.22-.1,144.33-.1,16,0,32.08,0,48.11,0,4.83,0,5.94-1.15,6.09-5.94.12-3.83.16-7.67.09-11.5,0-1.88.75-3.87-.54-5.63-5-.69-10-.21-14.95-.22q-88.91-.06-177.81-.07H102.57Z" transform="translate(-0.42 0.09)"/><path class="cls-3" d="M45.77,165.2c-4.41,1.38-8.86,2.68-12.78,6.72a49.33,49.33,0,0,1-.13-11.09c1.43-25.5,9.4-49.09,21.47-71.34A168.1,168.1,0,0,1,96.61,39.14a171.36,171.36,0,0,1,59.24-31.7A185.85,185.85,0,0,1,186.41,1,173.82,173.82,0,0,1,211.06,0,157.94,157.94,0,0,1,266,10.61a204.45,204.45,0,0,1,20.19,8.88A178.58,178.58,0,0,1,354.29,81a161.6,161.6,0,0,1,23.16,55.22A174.86,174.86,0,0,1,380.24,155c.57,5.4.58,10.71,1.1,17.06-6.76-5.8-13.64-8-21.52-6,.45-1.45,1.66-1.39,2.83-1.46,5.93-.36,5.94-.36,5.47-6a150.46,150.46,0,0,0-9.9-41c-3.48-9.09-8.21-17.49-13.29-25.82A159.69,159.69,0,0,0,325,65.36a162.23,162.23,0,0,0-25.05-21.81A147.88,147.88,0,0,0,279,30.86c-7.44-3.54-15.33-6.1-23-9.09-11.7-4.58-23.91-6.1-36-7.65-14-1.8-28.27-.27-42.19,2a156.9,156.9,0,0,0-38.51,12.12,150.3,150.3,0,0,0-31.75,19.59A184.56,184.56,0,0,0,89.46,64c-1.33,1.38-3,2.59-3.27,4.71-4.88.43-7.17,3.54-8.23,7.93-2.24,3.47-4.58,6.88-6.71,10.41A224.25,224.25,0,0,0,56,116.56a175,175,0,0,0-6.39,19.73c-1.77,6.24-4,12.58-4,19.28a11.25,11.25,0,0,1-1.07,5C43.37,162.76,44,164,45.77,165.2Z" transform="translate(-0.42 0.09)"/><path class="cls-4" d="M86.19,68.72c.29-2.12,1.94-3.33,3.27-4.71a184.56,184.56,0,0,1,18.07-16.14,150.3,150.3,0,0,1,31.75-19.59,156.9,156.9,0,0,1,38.51-12.12c13.92-2.31,28.18-3.84,42.19-2,12.1,1.55,24.31,3.07,36,7.65,7.67,3,15.56,5.55,23,9.09a147.88,147.88,0,0,1,20.95,12.69A162.23,162.23,0,0,1,325,65.36a159.69,159.69,0,0,1,19.94,26.43c5.08,8.33,9.81,16.73,13.29,25.82a150.46,150.46,0,0,1,9.9,41c.47,5.6.46,5.6-5.47,6-1.17.07-2.38,0-2.83,1.46l-.09,0c-.61-.11-1.1,0-1.27.69l-.06,0-.72.47-1.38,1.09c-2-5-1.82-10.45-2.71-15.67a168.3,168.3,0,0,0-8.65-30.45,135,135,0,0,0-11.31-23.39A153.47,153.47,0,0,0,301.35,61c-3.24-2.74-6.92-5-9.66-8.33,1.33-2.17,2.3-4.5.65-6.81s-4.09-2.2-6.57-2.08c-2,.11-2.51,2.28-4.1,2.94a241.19,241.19,0,0,0-27.81-12.62c-4.16-1.64-8.83-2.52-13.18-3.8-6.6-1.94-13.5-1.64-20-3.71a5.47,5.47,0,0,0-1.72-.14c-11.69,0-23.48-.86-35,1.55-6.4,1.35-12.77,3.42-19.13,4.8s-12.36,4.08-18.55,6c-2,.62-3.29,2.06-5,3-3.4,1.88-7.4,2.35-10.51,4.76-2.38-3.52-6.24-4.86-9.17-1.72-2.47,2.65-1.26,5.28.18,7.87-8.22,6.87-17,13.14-23.81,21.58-1.16,1.43-2.31,3.19-4.32,3.8C94,72.77,91.17,69.87,86.19,68.72Z" transform="translate(-0.42 0.09)"/><path class="cls-2" d="M356.83,371.55c-2.47.51-1.91,2.05-1.92,3.19-.07,6.16-.05,12.31-.08,18.47,0,4.08-1.18,5.21-5.44,5.37-3.32.12-5.11-1.65-5.12-5.41-.06-18.13,0-36.25-.08-54.38,0-2.78-.2-5.56-.36-8.34-.14-2.41.87-4.66,3.16-4.62,6.21.11,12.49-1.12,18.63,1,4.93,1.67,8.13,5.29,8.56,10,.83,9.21,1.28,18.52.15,27.79a7.76,7.76,0,0,1-4.05,6.11c-1.87,1-2.45,2-1.73,4.39,2,6.37,3.42,12.89,5.13,19.34.72,2.73.78,5.13-2.67,5.92-4,.92-7-.75-7.86-4.09C361.1,388.08,359,379.91,356.83,371.55Zm-1.95-33.79v19.3c0,4,0,3.94,5.4,4.27,3.2.19,4-1.59,4-4.25,0-4.07,0-8.13.05-12.19C364.4,338.12,362,336.16,354.88,337.76Z" transform="translate(-0.42 0.09)"/><path class="cls-2" d="M39.05,363c0-7.78-.25-15.57.07-23.34.34-8.2,4.87-13.49,14-14.58,7.3-.87,15.14,5.1,15.57,12.32.56,9.25.4,18.56.44,27.84,0,6.73-.09,13.47-.15,20.2a14.18,14.18,0,0,1-13.57,14.23c-11.47.77-16.54-4-16.52-15.42q0-10.62,0-21.25Zm19.37-.54h0c0-6.61,0-13.22,0-19.84,0-3.38-2-5.88-4.58-5.81s-4.44,2.55-4.46,5.67q-.07,20-.09,40c0,3,2.1,5.74,4.32,5.85,2.45.11,4.78-2.61,4.79-5.71C58.44,375.91,58.42,369.18,58.42,362.45Z" transform="translate(-0.42 0.09)"/><path class="cls-2" d="M199.88,327.66a4.31,4.31,0,0,1,4.1-2c4.42,0,8.83-.09,13.24,0a14,14,0,0,1,13.44,13.65c0,3.37-.13,6.74,0,10.11.17,4.44-1,8.18-5.14,10.75,7.26,6.27,7.17,14,4.25,21.94-1.79,4.86-6.14,6.79-11.07,7-5.1.22-10.22,0-15.33.09-1.72,0-2.92-.49-3.5-2.16Q199.88,357.34,199.88,327.66Zm10.75,9.23v16.4c3.3,0,6.55,1.24,8.83-2,1.07-1.51,1-10.65,0-12.2C217.19,335.66,213.87,336.73,210.63,336.89Zm-.12,41.6c3.19-.71,6.76,1.76,8.86-1.75,1.72-2.88,1.44-6.26-.16-9.3-2-3.71-5.36-2.72-8.7-2.59Z" transform="translate(-0.42 0.09)"/><path class="cls-2" d="M165,365c2.05,6.19,4,12.24,6.06,18.23,1,2.83.47,5.1-2.18,6.45s-6.85-.07-7.89-2.87a179.66,179.66,0,0,1-5.86-18.86c-.31-1.23-.17-2.88-2.73-3.09V378c0,2.55.06,5.11,0,7.66-.13,4-1.55,5.18-6.12,5-3.31-.11-4.71-1.75-4.7-5.42q.1-26.66.19-53.31c0-5.21,1.1-6.32,6.28-6.29,3.72,0,7.43,0,11.15,0,7.91,0,13.21,5.42,13.14,13.39,0,4.18-.11,8.36-.06,12.54C172.34,358.27,170.76,361.35,165,365Zm-12.51-27.8c0,5.07.08,10.14,0,15.2,0,2.21,1.88,3.39,2.9,3,2.1-.78,5.79.81,6.14-2.9a111.67,111.67,0,0,0,.15-12.14,3.31,3.31,0,0,0-3.48-3.53A13.49,13.49,0,0,0,152.49,337.15Z" transform="translate(-0.42 0.09)"/><path class="cls-2" d="M133.73,359.84q0,9.23,0,18.47c0,9.43-6.89,14.94-16,14.95s-14.06-6.54-14.09-14.71q-.06-19.51,0-39c0-8.32,6.38-14.42,14.9-14.52s14.88,5.85,15.18,14.28c.13,3.48,0,7,0,10.45v10.11Zm-10.44-.7h0c0-5.69,0-11.38,0-17.08,0-3.24-1.86-5.24-4.69-5.31-2.51-.06-4.32,2-4.33,5.12q-.07,17.25,0,34.51c0,3.29,1.85,5.14,4.77,5.09,2.36,0,4.33-2.38,4.33-5.25C123.3,370.53,123.29,364.84,123.29,359.14Z" transform="translate(-0.42 0.09)"/><path class="cls-2" d="M291.78,366.78c-3,4.9-2.68,9.54-2.69,14.13,0,2,.05,3.94,0,5.92-.05,3.71-1.35,5-5,5.06-4.06.07-5.85-1.4-6-5-.08-2.2,0-4.41,0-6.62q0-24.21-.09-48.42c0-5.14,1.09-6.33,5.84-6.39,4-.05,5.34,1.59,5.33,6.64,0,5.84,0,11.69.29,17.57,3.63-6.37,5.78-13.29,8.68-19.9,1.77-4,3-4.83,7.18-4.3,2.78.36,4.12,2.17,3.2,4.86A208.46,208.46,0,0,1,299.74,353a3.57,3.57,0,0,0-.15,3.09c3.35,10.72,6.53,21.5,9.69,32.28a3.93,3.93,0,0,1-2.41,5.11c-2.66,1.15-6.69-.12-7.79-2.67a74.85,74.85,0,0,1-2.91-8.51C294.7,377.36,293.35,372.37,291.78,366.78Z" transform="translate(-0.42 0.09)"/><path class="cls-2" d="M.45,365.44c0-7.9-.09-15.8,0-23.7.17-12.13,9.67-19,21.17-15.49a13.74,13.74,0,0,1,9.47,12.09c.16,3.13.12,6.27,0,9.41-.13,3.37-1.95,5-5.28,5.12-3.82.1-5-.92-5.33-4.72a37.53,37.53,0,0,1,0-4.86c.2-3.71-1.69-6.39-4.66-6.52-2.22-.09-4.68,2.85-4.78,6-.11,3.6-.06,7.2-.07,10.8q0,16.56-.07,33.11c0,3.53,2,6,4.8,6s4.53-2.24,4.65-5.8c.08-2.09,0-4.18.12-6.26.26-3.34,2-4.67,5.62-4.6,3.16.06,5.16,1.81,5,4.85-.18,4.58.6,9.19-1.23,13.74-3.17,7.88-11.64,10.56-17.5,9.56-8.06-1.38-12-6.74-12-15.29,0-4,0-7.9,0-11.85v-11.5Z" transform="translate(-0.42 0.09)"/><path class="cls-2" d="M254.29,325.45c5.2-.14,6,.32,6.9,5.53,3.16,17.77,7.54,35.31,10.1,53.2.42,2.92,1.35,5.57-2.46,6.56-4.46,1.15-7.15-.2-8.2-4.49-.71-2.88-2.13-3.8-4.88-3.31a8.6,8.6,0,0,1-2.43.07c-3.31-.35-5.69.3-6.59,4.15-.6,2.61-4.13,3.75-7.23,2.63-2.66-1-3.43-2.9-2.82-5.81,3.66-17.55,7.17-35.14,10.74-52.71C248.45,326.24,249.22,325.6,254.29,325.45ZM250,371.82a19.46,19.46,0,0,0,8,.15,209.58,209.58,0,0,0-3.92-21.87c-.73,3.85-1.42,7.37-2.08,10.89S250.7,368,250,371.82Z" transform="translate(-0.42 0.09)"/><path class="cls-2" d="M58.34,170.43c-1.42,2.19-1.3,2.65,1.18,2.71,4,.1,8.09.15,12.11-.12a26.55,26.55,0,0,1,12.67,2.27,1,1,0,0,0-.57,1.43c1.39,3.28.09,5.6-2.6,7.44l-24.08,0c-2.32-.05-4.66,0-7-.18a10.66,10.66,0,0,0-11.24,7.79c-1.3,4.31,1,9.35,5.3,11.7a9.79,9.79,0,0,0,8.28.7c9.53.49,19.06.25,28.59.12,2.65,1.58,4.15,3.8,3,6.9s-3.8,4.05-7,4.05c-9.64,0-19.28.09-28.91.12-15.28,0-22.73-16-19.64-26.29,2.41-8,7.21-13.18,15.12-15.69a10.14,10.14,0,0,1,5.45-.27,28.72,28.72,0,0,0,7.29.2c2-.05,2.75-1,1.92-2.92Z" transform="translate(-0.42 0.09)"/><path class="cls-2" d="M331.31,174.67a10.84,10.84,0,0,1,6.19-1.55c6,0,11.94-.12,17.92-.2,2.46.94,5.06.72,7.54.43,12.21-1.45,22.08,7.63,22.7,19.85.66,13.06-10.14,22.48-22.43,22.24-8.83-.17-17.66-.16-26.49-.09-3.31,0-5.76-1.16-6.82-4.28s.36-5.37,3-7c2.09,1.13,4.31.39,6.44.36,7.24-.08,14.5.6,21.73-.37,4.25,1.83,7.9.46,11-2.43s3.79-6.81,2.41-10.84a10.08,10.08,0,0,0-9.36-7.13,76.27,76.27,0,0,0-9.61.55c-7.54-.19-15.08-.4-22.61.12C329.2,181.07,329,179.71,331.31,174.67Z" transform="translate(-0.42 0.09)"/><path class="cls-2" d="M396.49,352.42c1.85-6.62,3.52-12.22,4.94-17.88.4-1.58.95-3.09,1.44-4.62,1.28-4,4.79-5.81,8.61-4.2,2.33,1,2.86,2.82,2.11,5.4-3.5,11.95-6.73,24-10.24,35.92-1.68,5.69-1.35,11.47-1.44,17.25-.08,5,.08,10,.07,15,0,3.91-1.1,5.2-4.3,5.27-4.46.1-6.49-1.43-6.55-5.26-.11-7.55-.19-15.1,0-22.65.1-4.75-1.42-9.13-2.63-13.55-2.81-10.24-5.62-20.49-9.08-30.55-1.16-3.39-.26-5.95,2.11-6.71,4.37-1.4,7.22-.36,8.36,3.41C392.08,336.58,394.09,344,396.49,352.42Z" transform="translate(-0.42 0.09)"/><path class="cls-4" d="M58.34,170.43h0c-2.65-5.4-7.55-5.4-12.53-5.22-1.8-1.16-2.4-2.44-1.27-4.61a11.25,11.25,0,0,0,1.07-5c.06-6.7,2.26-13,4-19.28A175,175,0,0,1,56,116.56a224.25,224.25,0,0,1,15.26-29.5c2.13-3.53,4.47-6.94,6.71-10.41,1.61,6.34,4.11,8.18,10.31,7.56-1.52,4.64-4.67,8.34-7.21,12.38-4,6.3-7,13.06-10.06,19.76a100.44,100.44,0,0,0-5.24,13.16,182.63,182.63,0,0,0-5.48,23.05C59.29,158.5,59.18,164.5,58.34,170.43Z" transform="translate(-0.42 0.09)"/><path class="cls-2" d="M324.93,367.13c-.88,5-.3,9.84-.38,14.7,0,2.05,1.39,2.83,3.11,3.05a38.79,38.79,0,0,0,4.18.07c4.24.1,5.85,2.06,5.62,6.85-.15,3.19-1.87,4.57-5.7,4.29-4.14-.31-8.26-.8-12.38-1.24-3.19-.34-5.14-1.93-5.3-5.31-.05-1.16-.22-2.31-.22-3.47q0-27.54-.07-55.09c0-3.26,1.78-5.25,5-5.32,3.95-.08,7.91-.14,11.86-.1,4.51,0,7.07,2.55,6.77,6.46-.21,2.85-1.59,4.56-4.57,4.61-2.54.05-5.09,0-7.77,0-1.22,5.92-.08,11.74-.73,17.48-.2,1.71,1.72,2.44,3.61,2,3-.72,5.1.65,5.86,3.46s.41,5.54-2.45,7.34C329.28,368.21,327.26,366.27,324.93,367.13Z" transform="translate(-0.42 0.09)"/><path class="cls-2" d="M87,384.67c2.85.54,5.24-.18,7.65-.34,3.23-.21,5.63,1.95,6,5.35a5.18,5.18,0,0,1-4.57,5.61c-5.41.56-10.84,1-16.27,1.17-2.45.07-4-1.34-4-4.19.08-20.46,0-40.92.11-61.38,0-4.25,1.59-5.49,6.22-5.4,3.49.07,4.88,1.65,4.88,5.62Q87,356,87,381Z" transform="translate(-0.42 0.09)"/><path class="cls-2" d="M54.94,236.92H34.38a19.06,19.06,0,0,0-6.46.91,6.53,6.53,0,0,1-8-2.59,7.52,7.52,0,0,1,0-8.73A6.23,6.23,0,0,1,28,224.27c3.86,2,7.82,1.68,11.83,1.69Q59,226,78.2,226A5.62,5.62,0,0,1,84,230c.78,2.35-.27,4.3-2.14,5.82-1.27,1-2.8,1-4.31,1-7.55,0-15.1,0-22.65,0Z" transform="translate(-0.42 0.09)"/><path class="cls-2" d="M358.13,225.94c5.57,0,11.14,0,16.71,0,3.55,0,7,.16,10.49-1.53a6.81,6.81,0,0,1,9.48,3.56,7,7,0,0,1-3.36,9.32,10.13,10.13,0,0,1-6.73.36A17.51,17.51,0,0,0,380,237q-21.75,0-43.51-.07c-4.11,0-6.88-2.43-6.75-5.74s2.73-5.22,6.84-5.22h21.58Z" transform="translate(-0.42 0.09)"/><path class="cls-2" d="M354.51,248.59c6,0,12.06,0,18.1,0a13.53,13.53,0,0,0,5.37-1.12,7.82,7.82,0,0,1,9.38,2.3,7.07,7.07,0,0,1-.2,8.9,7.62,7.62,0,0,1-9.35,2,14.69,14.69,0,0,0-7-1.33q-17.24,0-34.46,0c-3.83,0-6.51-2.35-6.6-5.58-.08-2.6,3-5.75,6.69-5.46,6,.46,12.06.12,18.09.12Z" transform="translate(-0.42 0.09)"/><path class="cls-2" d="M58.69,259.34c-4.53,0-9,0-13.58,0-3.18,0-6.25-.11-9.34,1.49A7,7,0,0,1,27,259a7.79,7.79,0,0,1-.62-9,8,8,0,0,1,9-2.69c3.47,1.28,7,1.37,10.56,1.33,10.44-.1,20.89-.1,31.33-.12,4,0,6.84,2.15,6.88,5.24s-2.67,5.48-6.68,5.52c-6.27.06-12.53,0-18.8,0Z" transform="translate(-0.42 0.09)"/><path class="cls-1" d="M57.05,184.19l24.08,0c.6,6.72-.14,13.44-.12,20.16-9.53.13-19.06.37-28.58-.12-1.32-3.34-5-3.35-7.42-5.29s-2.95-4.42-.43-6.54c2.26-1.91,4.89-2.26,7.72-2.2C56.64,190.25,57.73,188.81,57.05,184.19Z" transform="translate(-0.42 0.09)"/><path class="cls-1" d="M333,184.36c7.53-.52,15.07-.31,22.61-.12.59,5.56,1,5.94,6.61,5.86a13.52,13.52,0,0,1,5.71,1.33,5.06,5.06,0,0,1,3,4.71,3.21,3.21,0,0,1-2.11,3.29c-2.87,1.06-5.69,2.16-7.68,4.66-7.23,1-14.49.29-21.73.37-2.13,0-4.35.77-6.44-.36A92.38,92.38,0,0,1,333,184.36Z" transform="translate(-0.42 0.09)"/><path class="cls-1" d="M345.12,277.34c3.93,0,7.87,4,7.85,8,0,4.6-3.56,8.52-7.7,8.55a9,9,0,0,1-8.89-8.78C336.4,280.62,340,277.38,345.12,277.34Z" transform="translate(-0.42 0.09)"/><path class="cls-5" d="M392.5,277.53c4.81.09,7.71,3.12,7.6,7.93-.09,4.11-4,8.35-7.79,8.38-5,0-8.42-3.75-8.25-9.07C384.19,280.37,387.61,277.44,392.5,277.53Z" transform="translate(-0.42 0.09)"/><path class="cls-5" d="M46,277.53c4.63.08,7.71,3.36,7.55,8.06s-3.77,7.84-9.19,7.77c-4.34-.05-6.91-3.14-6.87-8.25C37.5,280.57,41,277.45,46,277.53Z" transform="translate(-0.42 0.09)"/><path class="cls-6" d="M29.87,285.13a8.27,8.27,0,0,1-8.35,8.37c-4.09.09-7.75-3.69-7.8-8.07a7.49,7.49,0,0,1,7.78-7.94C26.5,277.43,29.85,280.49,29.87,285.13Z" transform="translate(-0.42 0.09)"/><path class="cls-4" d="M76.8,285.65a8.29,8.29,0,0,1-8.13,7.79,7.69,7.69,0,0,1-7.75-8.1,8.15,8.15,0,0,1,8.14-7.83A8,8,0,0,1,76.8,285.65Z" transform="translate(-0.42 0.09)"/><path class="cls-2" d="M375.71,285.44c.64,5.62-4,7.8-7.57,7.87a7.43,7.43,0,0,1-7.38-8,8.11,8.11,0,0,1,8.1-7.78C372.75,277.67,375.78,281.17,375.71,285.44ZM368,278.86c-2.57,0-6.28,4.47-6.24,7.49a5.7,5.7,0,0,0,5.66,5.76c3.72,0,7.2-3.37,7.11-6.89C374.41,282.13,371,278.84,368,278.86Z" transform="translate(-0.42 0.09)"/><path class="cls-3" d="M358.46,166.73c.17-.69.66-.8,1.27-.69Z" transform="translate(-0.42 0.09)"/><path class="cls-3" d="M357.68,167.24l.72-.47Z" transform="translate(-0.42 0.09)"/><path class="cls-6" d="M232.88,100.66c-3.58-7.42-8.4-13.54-16.54-16.41-15.51-5.48-32.8,2.39-36.74,17.72,0,.2-.28.35-.43.52-2-1.55-3.8-.09-5.41.66-10.64,5-20.31,11.24-27.37,20.91l-40.22-.1c4.71-11,11.86-20.42,20.39-28.7,7.26-7.05,14.34-14.58,24.79-17.1,2-.47,2.47-1.93,2.44-3.7,0-2.19-.76-3.87-3.25-4.15,4-3.66,9.07-5.25,14-6.94,5.22-1.79,10.41-3.67,15.81-5,9.6-2.37,19.31-2.89,29.13-2.83a95.4,95.4,0,0,1,29.59,5c7.38,2.45,14.79,5.05,21.36,9.16,6.81,4.26,13.73,8.38,19.71,14,3.55,3.35,7.79,6.1,11.08,9.85,7.1,8.08,14,16.32,18.76,26.06.7,1.42,1.27,2.9,1.9,4.35l-45.26.08a44.13,44.13,0,0,0-11.12-11.35c-6.82-5-13.71-9.95-22.26-11.66l.18,0Z" transform="translate(-0.42 0.09)"/><path class="cls-7" d="M88.27,84.21c-6.2.62-8.7-1.22-10.31-7.56,1.06-4.39,3.35-7.5,8.23-7.93,5,1.15,7.77,4,7.52,9.39C93,81.14,91,83,88.27,84.21Z" transform="translate(-0.42 0.09)"/><path class="cls-7" d="M281.67,46.73c1.59-.66,2.05-2.83,4.1-2.94,2.48-.12,5-.13,6.57,2.08s.68,4.64-.65,6.81c-4.91,2.62-7.51,1.56-9.18-3.75C282.27,48.18,282,47.46,281.67,46.73Z" transform="translate(-0.42 0.09)"/><path class="cls-7" d="M121.84,52.73c-1.44-2.59-2.65-5.22-.18-7.87,2.93-3.14,6.79-1.8,9.17,1.72a5.25,5.25,0,0,1-2.53,6.13C126.44,53.84,124,54.76,121.84,52.73Z" transform="translate(-0.42 0.09)"/><path class="cls-6" d="M103,235.31q-.14-15.21-.29-30.42c1.16,0,2.32.07,3.48.07l204.7,0c.41,10.13.27,20.25-.08,30.37-12.2.06-24.4.16-36.61.15Q188.56,235.4,103,235.31Zm19.11-29.5-.12.39h165.8v-.39Z" transform="translate(-0.42 0.09)"/><path class="cls-1" d="M310.54,204.86l-204.7,0c-1.16,0-2.32,0-3.48-.07q.15-13.29.32-26.58c5.94-1.73,12.06-1,18.11-1.25l14.6.08c1.11.92,2.44.62,3.68.63q67.22,0,134.43,0c1.24,0,2.58.35,3.66-.65l11.12-.12,22.3.21Q310.57,191,310.54,204.86Z" transform="translate(-0.42 0.09)"/><path class="cls-8" d="M103,165.76c-.08-6.57-.59-13.15,0-19.72,1.38-.1,2.77-.29,4.15-.29q101.82-.06,203.63-.08c.09.24.18.47.28.7l0,9.81c0,1.6,0,3.21,0,4.81,0,.49,0,1,0,1.45-.08.67-.15,1.34-.23,2a5.38,5.38,0,0,1-.69.07q-100.79,0-201.56,0c-1.44,0-2.55-.73-3.69-1Z" transform="translate(-0.42 0.09)"/><path class="cls-5" d="M310.86,265.7c1.29,1.76.51,3.75.54,5.63.07,3.83,0,7.67-.09,11.5-.15,4.79-1.26,5.92-6.09,5.94-16,0-32.07,0-48.11,0-48.11,0-96.22-.11-144.33.1-9.64,0-10.42-1.55-10-10.27.12-2.66-.12-5.33-.19-8H310.23C311.19,268.71,310.73,267.17,310.86,265.7Z" transform="translate(-0.42 0.09)"/><path class="cls-9" d="M103,235.31q85.61.08,171.2.14c12.21,0,24.41-.09,36.61-.15v18c-1.19,1.09-2.53.67-3.74.67q-99.54.06-199.08.07c-5.06,0-5.07,0-5.06-5.15C102.89,244.37,102.93,239.84,103,235.31Z" transform="translate(-0.42 0.09)"/><path class="cls-4" d="M103,165.76l1.82-2.3c1.14.32,2.25,1,3.69,1q100.77-.06,201.56,0a5.38,5.38,0,0,0,.69-.07c0,3.75,0,7.49,0,11.24l-22.21.12-44.69-.09c-11.35,0-22.7-.14-34-.13q-27.63,0-55.25.15l-33.55.07-18-.27C103,172.27,103,169,103,165.76Z" transform="translate(-0.42 0.09)"/><path class="cls-7" d="M310.77,145.67q-101.82,0-203.63.08c-1.38,0-2.77.19-4.15.29-.27-3.46-.53-6.91-.82-10.71h208.6Z" transform="translate(-0.42 0.09)"/><path class="cls-10" d="M310.86,265.7c-.13,1.47.33,3-.63,4.89H102.57v-5.18H118.1q88.91,0,177.81.07C300.89,265.49,305.88,265,310.86,265.7Z" transform="translate(-0.42 0.09)"/><path class="cls-4" d="M199.82,95.16c2.68-3.14,6.47-2.25,9.42-1.58,6.26,1.43,11.43,4.82,13.32,11.65,1.79,6.43.54,12.42-4.1,16.91-3.21,3.1-8,3.68-12.61,3.75-5,.08-9.31-1.29-12.81-4.9s-4.68-8.17-4.09-13.12c.11-.93-.06-2.56,1.79-2.41.62.69,1.22,1.38,1.86,2a6.73,6.73,0,0,0,9.07,1.09,7.19,7.19,0,0,0,2.27-8.92C203.08,97.63,200.94,96.88,199.82,95.16Z" transform="translate(-0.42 0.09)"/><path class="cls-7" d="M199.82,95.16c1.12,1.72,3.26,2.47,4.12,4.51a7.19,7.19,0,0,1-2.27,8.92,6.73,6.73,0,0,1-9.07-1.09c-.64-.66-1.24-1.35-1.86-2C190.35,100,193.61,96.28,199.82,95.16Z" transform="translate(-0.42 0.09)"/><path class="cls-11" d="M288.6,175.8l22.21-.12.08,1.52-22.3-.2C288.59,176.6,288.59,176.2,288.6,175.8Z" transform="translate(-0.42 0.09)"/><path class="cls-11" d="M103,175.53l18,.27c0,.42,0,.84,0,1.26-6,.27-12.17-.48-18.12,1.25A4.15,4.15,0,0,1,103,175.53Z" transform="translate(-0.42 0.09)"/><path class="cls-12" d="M311,156.18l0-9.81A18.56,18.56,0,0,1,311,156.18Z" transform="translate(-0.42 0.09)"/><path class="cls-12" d="M311,162.44c0-.48,0-1,0-1.45A.83.83,0,0,1,311,162.44Z" transform="translate(-0.42 0.09)"/><path class="cls-7" d="M232.88,100.66l.57.44C232.93,101.39,232.89,101,232.88,100.66Z" transform="translate(-0.42 0.09)"/><path class="cls-13" d="M368,278.86c3.07,0,6.45,3.27,6.53,6.36.09,3.52-3.39,6.9-7.11,6.89a5.7,5.7,0,0,1-5.66-5.76C361.68,283.33,365.39,278.88,368,278.86Z" transform="translate(-0.42 0.09)"/><path class="cls-14" d="M122.06,205.81H287.74v.39H121.94Z" transform="translate(-0.42 0.09)"/><path class="cls-15" d="M154.61,175.73q27.63-.09,55.25-.15c11.35,0,22.7.09,34,.13.5,2.08,2.21,1.3,3.42,1.31,10,.08,20.09.08,30.14.1-1.08,1-2.42.65-3.66.65q-67.21,0-134.43,0c-1.25,0-2.58.3-3.68-.62,5.28,0,10.56,0,15.84-.11C152.68,177,154.21,177.6,154.61,175.73Z" transform="translate(-0.42 0.09)"/><path class="cls-16" d="M277.47,177.12c-10.05,0-20.09,0-30.14-.1-1.21,0-2.92.77-3.42-1.31l44.69.09c0,.4,0,.8,0,1.2Z" transform="translate(-0.42 0.09)"/><path class="cls-16" d="M154.61,175.73c-.4,1.87-1.93,1.28-3.07,1.3-5.28.08-10.56.08-15.84.11l-14.6-.08c0-.42,0-.84,0-1.26Z" transform="translate(-0.42 0.09)"/></svg>