<svg id="Capa_1" data-name="Capa 1" xmlns="http://www.w3.org/2000/svg" viewBox="0 0 414 314.51"><defs><style>.cls-1{fill:#f5a714;}.cls-2{fill:#1a3150;}.cls-3{fill:#ed7470;}.cls-4{fill:#ea5a44;}.cls-5{fill:#3fb1e6;}.cls-6{fill:#3ab7b6;}.cls-7{fill:#fdf9ea;}.cls-8{fill:#ea5c84;}.cls-9{fill:#4e3d8f;}.cls-10{fill:#9ed5e4;}.cls-11{fill:#edeb99;}.cls-12{fill:#502a41;}.cls-13{fill:#383486;}.cls-14{fill:#5aac86;}.cls-15{fill:#f7e234;}.cls-16{fill:#f2e95e;}</style></defs><path class="cls-1" d="M83.91,160.72c-2.5,7.5-6.41,14.57-7.1,22.63-.06.62-.78,1.2-1.18,1.78a28.89,28.89,0,0,0-13.58-2.38c-4.31.28-8.65.23-13,.12-2.65-.06-2.78-.54-1.25-2.84.9-6.23,1-12.53,2.07-18.77a188.92,188.92,0,0,1,5.87-24.21,103.93,103.93,0,0,1,5.62-13.82c3.33-7,6.55-14.15,10.78-20.76,2.72-4.25,6.09-8.13,7.73-13,2.89-1.31,5.07-3.24,5.82-6.41,2.15-.64,3.39-2.49,4.63-4,7.31-8.88,16.7-15.46,25.52-22.68,2.3,2.14,4.92,1.17,6.91,0a5.46,5.46,0,0,0,2.71-6.44c3.34-2.53,7.62-3,11.27-5,1.79-1,3.18-2.48,5.32-3.14,6.63-2,12.91-4.85,19.87-6.33s13.64-3.63,20.5-5c12.33-2.53,24.95-1.67,37.48-1.63a6.29,6.29,0,0,1,1.85.14c6.95,2.18,14.34,1.87,21.41,3.9,4.66,1.35,9.67,2.27,14.13,4A263.11,263.11,0,0,1,287.1,50.09c.3.77.65,1.53.9,2.31,1.79,5.58,4.57,6.69,9.84,3.94,2.94,3.49,6.88,5.88,10.35,8.75a162.5,162.5,0,0,1,34.59,39.71,141.38,141.38,0,0,1,12.12,24.58c4,10.47,7.36,21,9.26,32,.95,5.48.72,11.18,2.91,16.45-.32,1.61-.63,3.21-.95,4.82-6.4.09-12.8.25-19.2.22a11.83,11.83,0,0,0-6.63,1.62c-1.56-.15-2.28-1-2.75-2.5-2.29-7.2-5.25-14.24-6.93-21.57-1.45-6.38-1.2-13.07-.33-19.64-2.2-8.11-3.38-9.16-10.77-9.5-.68-1.53-1.29-3.08-2-4.57-5.13-10.23-12.5-18.89-20.1-27.38-3.53-3.93-8.08-6.82-11.87-10.34-6.41-6-13.82-10.28-21.12-14.76-7.05-4.32-15-7-22.89-9.62a104,104,0,0,0-31.71-5.26c-10.52-.06-20.92.49-31.2,3-5.79,1.4-11.35,3.37-17,5.25-5.31,1.78-10.73,3.44-15,7.29-3.4-.17-4.52,3.06-6.86,4.5a113.4,113.4,0,0,0-24.85,20.27,148.76,148.76,0,0,0-12,15.48,76.25,76.25,0,0,0-9,16.12c-7.59.38-10.06,3.1-9.91,10.52C84.08,148.07,83.93,154.4,83.91,160.72Z" transform="translate(0 -0.91)"/><path class="cls-2" d="M83.91,160.72c0-6.32.17-12.65,0-19-.15-7.42,2.32-10.14,9.91-10.52l5.19,0,43.11.11h38c-4-8.61-4.64-13.88-2.87-22.66.16-.18.41-.33.46-.54C182,92,200.48,83.74,217.1,89.5c8.73,3,13.89,9.45,17.72,17.24,0,.4.06.77.62.46l-.2,0c.6,5.47,1.89,11,.14,16.42-.81,2.52-2,5-3.1,7.75H271l48.5-.08c7.39.34,8.57,1.39,10.77,9.5-.19,10.23-.53,20.45-.54,30.68q0,63.15.07,126.32c0,6-1.61,11.14-6.78,14.76a14.92,14.92,0,0,1-8.71,2.75q-106.63,0-213.26.14c-10.61,0-16.94-8.07-16.88-17.16.28-39.54.19-79.09.18-118.63C84.35,173.33,84.84,167,83.91,160.72Zm105.76-48.94c-2-.15-1.8,1.55-1.92,2.53-.62,5.2.57,9.93,4.39,13.79s8.39,5.23,13.73,5.15c4.94-.08,10.07-.69,13.51-3.95,5-4.72,6.31-11,4.39-17.76-2-7.17-7.56-10.73-14.28-12.23-3.16-.71-7.22-1.64-10.09,1.65C192.75,102.14,189.26,106,189.67,111.78Zm128.65,73.76c0-3.93,0-7.87,0-11.8.08-.7.16-1.4.23-2.1a.87.87,0,0,0,0-1.53c0-1.68,0-3.36,0-5.05a19.07,19.07,0,0,0,0-10.3l-.3-.74V143.16H94.78c.31,4,.59,7.62.87,11.25-.58,6.9,0,13.81,0,20.71v10.26a4.34,4.34,0,0,0,0,2.93l-.34,27.91q.17,16,.32,32c0,4.76-.08,9.52-.08,14.28,0,5.4,0,5.41,5.41,5.41q106.67,0,213.31-.07c1.3,0,2.74.43,4-.71V248.17c.38-10.63.53-21.26.09-31.9q0-14.57.05-29.13ZM95.2,285.24c.08,2.8.34,5.61.21,8.41-.43,9.16.41,10.83,10.73,10.78,51.55-.22,103.1-.11,154.65-.11,17.18,0,34.37.05,51.55,0,5.17,0,6.36-1.2,6.52-6.23q.19-6,.1-12.09c0-2,.8-4.05-.58-5.91-5.33-.72-10.68-.22-16-.22q-95.27-.08-190.52-.08H95.2Z" transform="translate(0 -0.91)"/><path class="cls-3" d="M34.35,174.53c-4.73,1.45-9.5,2.82-13.7,7.07A50.78,50.78,0,0,1,20.52,170c1.53-26.79,10.07-51.57,23-74.95,11.4-20.6,26.77-38.09,45.3-52.88a184.7,184.7,0,0,1,63.47-33.3A203.63,203.63,0,0,1,185,2.08,188.45,188.45,0,0,1,211.45,1a172.4,172.4,0,0,1,58.86,11.2,221.24,221.24,0,0,1,21.63,9.33,190.11,190.11,0,0,1,73,64.6,168.38,168.38,0,0,1,24.81,58,181.69,181.69,0,0,1,3,19.68c.61,5.67.61,11.25,1.18,17.92-7.25-6.1-14.62-8.42-23.06-6.34.48-1.52,1.78-1.45,3-1.53,6.36-.37,6.37-.38,5.86-6.26-1.3-14.87-5.19-29.14-10.61-43-3.73-9.55-8.79-18.38-14.24-27.12a167.68,167.68,0,0,0-21.36-27.77,173.7,173.7,0,0,0-26.85-22.91,158.26,158.26,0,0,0-22.44-13.33c-8-3.71-16.43-6.41-24.64-9.55-12.54-4.81-25.62-6.41-38.59-8C206,14,190.72,15.56,175.8,18a170.46,170.46,0,0,0-41.26,12.73,161.23,161.23,0,0,0-34,20.58,196.63,196.63,0,0,0-19.36,17C79.73,69.69,78,71,77.65,73.19c-5.23.45-7.68,3.72-8.81,8.33-2.41,3.64-4.91,7.22-7.19,10.93a235,235,0,0,0-16.36,31,183.4,183.4,0,0,0-6.84,20.73c-1.9,6.55-4.25,13.21-4.32,20.25A11.58,11.58,0,0,1,33,169.7C31.77,172,32.42,173.32,34.35,174.53Z" transform="translate(0 -0.91)"/><path class="cls-4" d="M77.65,73.19c.31-2.23,2.08-3.5,3.51-4.94a196.63,196.63,0,0,1,19.36-17,161.23,161.23,0,0,1,34-20.58A170.46,170.46,0,0,1,175.8,18c14.92-2.42,30.19-4,45.2-2.15,13,1.63,26.05,3.23,38.59,8,8.21,3.14,16.67,5.84,24.64,9.55a158.26,158.26,0,0,1,22.44,13.33,173.7,173.7,0,0,1,26.85,22.91,167.68,167.68,0,0,1,21.36,27.77c5.45,8.74,10.51,17.57,14.24,27.12,5.42,13.88,9.31,28.15,10.61,43,.51,5.88.5,5.89-5.86,6.26-1.25.08-2.55,0-3,1.53l-.1.06c-.65-.11-1.18,0-1.36.72l-.07.05-.77.48-1.47,1.15c-2.19-5.27-2-11-2.91-16.45-1.9-11-5.31-21.52-9.26-32a141.38,141.38,0,0,0-12.12-24.58,162.5,162.5,0,0,0-34.59-39.71c-3.47-2.87-7.41-5.26-10.35-8.75,1.43-2.28,2.46-4.73.7-7.15s-4.38-2.31-7-2.18c-2.2.11-2.7,2.38-4.4,3.08a263.11,263.11,0,0,0-29.79-13.26c-4.46-1.72-9.47-2.64-14.13-4-7.07-2-14.46-1.72-21.41-3.9a6.29,6.29,0,0,0-1.85-.14c-12.53,0-25.15-.9-37.48,1.63-6.86,1.41-13.68,3.59-20.5,5s-13.24,4.29-19.87,6.33c-2.14.66-3.53,2.17-5.32,3.14-3.65,2-7.93,2.46-11.27,5-2.54-3.69-6.69-5.1-9.82-1.8-2.64,2.78-1.35,5.54.2,8.26C107,63.61,97.65,70.19,90.34,79.07c-1.24,1.5-2.48,3.35-4.63,4C86,77.44,83,74.4,77.65,73.19Z" transform="translate(0 -0.91)"/><path class="cls-2" d="M47.82,180c-1.53,2.3-1.4,2.78,1.25,2.84,4.33.11,8.67.16,13-.12a28.89,28.89,0,0,1,13.58,2.38,1.06,1.06,0,0,0-.61,1.51c1.49,3.44.1,5.88-2.79,7.81l-25.8,0c-2.49,0-5,0-7.46-.19a11.42,11.42,0,0,0-12,8.18C25.53,207,28,212.3,32.6,214.76a10.61,10.61,0,0,0,8.87.74c10.21.51,20.42.27,30.64.13,2.84,1.66,4.44,4,3.25,7.25s-4.07,4.25-7.48,4.25c-10.32,0-20.65.1-31,.12-16.37.05-24.34-16.76-21-27.61,2.57-8.45,7.72-13.84,16.2-16.48a11,11,0,0,1,5.84-.28c2.59.58,5.2.28,7.8.21,2.15-.06,2.95-1,2.07-3.07Z" transform="translate(0 -0.91)"/><path class="cls-2" d="M340.29,184.48a11.83,11.83,0,0,1,6.63-1.62c6.4,0,12.8-.13,19.2-.22,2.64,1,5.43.76,8.09.45,13.08-1.52,23.65,8,24.31,20.86.71,13.71-10.86,23.62-24,23.36-9.46-.18-18.92-.17-28.38-.09-3.55,0-6.18-1.23-7.3-4.5s.38-5.64,3.25-7.32c2.23,1.19,4.61.4,6.9.38,7.76-.09,15.54.62,23.28-.4,4.55,1.93,8.47.49,11.79-2.54s4.06-7.16,2.57-11.39a10.75,10.75,0,0,0-10-7.49,81.67,81.67,0,0,0-10.3.58c-8.08-.2-16.15-.42-24.23.12C338,191.21,337.78,189.77,340.29,184.48Z" transform="translate(0 -0.91)"/><path class="cls-4" d="M47.82,180h0c-2.84-5.68-8.09-5.68-13.43-5.49-1.93-1.21-2.58-2.56-1.37-4.83a11.58,11.58,0,0,0,1.15-5.28c.07-7,2.42-13.7,4.32-20.25a183.4,183.4,0,0,1,6.84-20.73,235,235,0,0,1,16.36-31c2.28-3.71,4.78-7.29,7.19-10.93,1.72,6.66,4.4,8.59,11,8-1.64,4.87-5,8.75-7.73,13-4.23,6.61-7.45,13.71-10.78,20.76a103.93,103.93,0,0,0-5.62,13.82,188.92,188.92,0,0,0-5.87,24.21C48.84,167.5,48.72,173.8,47.82,180Z" transform="translate(0 -0.91)"/><path class="cls-2" d="M44.17,249.88h-22a20.78,20.78,0,0,0-6.92,1,7.08,7.08,0,0,1-8.55-2.72,7.8,7.8,0,0,1,0-9.18,6.75,6.75,0,0,1,8.63-2.35c4.13,2.09,8.37,1.77,12.67,1.78q20.54,0,41.08,0c3.13,0,5.3,1.42,6.25,4.24.84,2.48-.29,4.52-2.29,6.12-1.36,1.08-3,1.08-4.62,1.08q-12.13,0-24.27,0Z" transform="translate(0 -0.91)"/><path class="cls-2" d="M369,238.33c6,0,11.94,0,17.9,0,3.82,0,7.51.16,11.25-1.61a7.35,7.35,0,0,1,10.15,3.74,7.27,7.27,0,0,1-3.6,9.8,11.1,11.1,0,0,1-7.21.37,19.09,19.09,0,0,0-5.08-.7q-23.31,0-46.62-.07c-4.41,0-7.38-2.55-7.24-6s2.93-5.48,7.33-5.48H369Z" transform="translate(0 -0.91)"/><path class="cls-2" d="M365.15,262.13c6.46,0,12.92,0,19.39,0a14.68,14.68,0,0,0,5.75-1.18,8.49,8.49,0,0,1,10,2.42,7.31,7.31,0,0,1-.21,9.35,8.28,8.28,0,0,1-10,2.12,16.15,16.15,0,0,0-7.52-1.4q-18.46,0-36.92,0c-4.11,0-7-2.46-7.08-5.86-.08-2.72,3.2-6,7.18-5.74,6.42.49,12.91.14,19.38.14Z" transform="translate(0 -0.91)"/><path class="cls-2" d="M48.19,273.43H33.64c-3.41,0-6.7-.12-10,1.57a7.59,7.59,0,0,1-9.36-1.91,8,8,0,0,1-.67-9.46c1.77-2.62,6.09-4.11,9.63-2.83,3.71,1.35,7.45,1.43,11.31,1.4,11.19-.12,22.38-.11,33.57-.14,4.31,0,7.32,2.27,7.37,5.51s-2.86,5.76-7.16,5.8c-6.71.06-13.43,0-20.14,0Z" transform="translate(0 -0.91)"/><path class="cls-1" d="M46.43,194.48l25.8,0c.65,7.06-.15,14.12-.12,21.18-10.22.14-20.43.38-30.63-.13-1.41-3.5-5.4-3.52-7.95-5.55s-3.16-4.65-.46-6.87c2.42-2,5.24-2.38,8.28-2.32C46,200.85,47.16,199.33,46.43,194.48Z" transform="translate(0 -0.91)"/><path class="cls-1" d="M342.05,194.66c8.08-.54,16.15-.32,24.23-.12.63,5.84,1,6.23,7.09,6.15a14.67,14.67,0,0,1,6.11,1.4,5.3,5.3,0,0,1,3.25,4.94,3.37,3.37,0,0,1-2.26,3.46c-3.08,1.12-6.1,2.27-8.23,4.89-7.74,1-15.52.31-23.28.4-2.29,0-4.67.81-6.9-.38A95.87,95.87,0,0,1,342.05,194.66Z" transform="translate(0 -0.91)"/><path class="cls-1" d="M355.08,292.33c4.22,0,8.44,4.19,8.42,8.44,0,4.82-3.81,9-8.25,9a9.52,9.52,0,0,1-9.53-9.23C345.75,295.77,349.64,292.37,355.08,292.33Z" transform="translate(0 -0.91)"/><path class="cls-5" d="M405.85,292.53c5.15.09,8.26,3.28,8.15,8.33-.1,4.32-4.33,8.77-8.35,8.8-5.33,0-9-3.94-8.85-9.53C397,295.51,400.61,292.43,405.85,292.53Z" transform="translate(0 -0.91)"/><path class="cls-5" d="M34.56,292.53c5,.08,8.26,3.53,8.09,8.47s-4,8.23-9.85,8.16c-4.65-.06-7.4-3.3-7.35-8.67C25.48,295.72,29.23,292.44,34.56,292.53Z" transform="translate(0 -0.91)"/><path class="cls-6" d="M17.31,300.51a8.78,8.78,0,0,1-8.95,8.8C4,309.4.06,305.43,0,300.83c-.06-4.88,3.34-8.28,8.34-8.34C13.7,292.42,17.29,295.64,17.31,300.51Z" transform="translate(0 -0.91)"/><path class="cls-4" d="M67.6,301.06a8.8,8.8,0,0,1-8.72,8.18,8.15,8.15,0,0,1-8.3-8.51,8.65,8.65,0,0,1,8.72-8.22A8.43,8.43,0,0,1,67.6,301.06Z" transform="translate(0 -0.91)"/><path class="cls-2" d="M387.86,300.84c.69,5.9-4.33,8.19-8.11,8.27a7.87,7.87,0,0,1-7.9-8.38,8.6,8.6,0,0,1,8.67-8.17A7.85,7.85,0,0,1,387.86,300.84Zm-8.3-6.91c-2.76,0-6.74,4.7-6.69,7.86a6.06,6.06,0,0,0,6.07,6.06c4,0,7.71-3.54,7.61-7.24C386.47,297.37,382.85,293.91,379.56,293.93Z" transform="translate(0 -0.91)"/><path class="cls-3" d="M369.38,176.14c.18-.72.71-.83,1.36-.72Z" transform="translate(0 -0.91)"/><path class="cls-3" d="M368.54,176.67l.77-.48Z" transform="translate(0 -0.91)"/><path class="cls-6" d="M234.82,106.74C231,99,225.83,92.52,217.1,89.5,200.48,83.74,182,92,177.74,108.12c-.05.21-.3.36-.46.54-2.16-1.63-4.07-.09-5.8.7-11.4,5.2-21.76,11.81-29.32,22l-43.1-.11c5-11.6,12.71-21.45,21.84-30.14,7.79-7.41,15.38-15.31,26.57-18,2.09-.49,2.65-2,2.61-3.88,0-2.3-.81-4.07-3.48-4.36,4.3-3.85,9.72-5.51,15-7.29,5.6-1.88,11.16-3.85,17-5.25,10.28-2.49,20.68-3,31.2-3a104,104,0,0,1,31.71,5.26c7.91,2.57,15.84,5.3,22.89,9.62C271.68,78.7,279.09,83,285.5,89c3.79,3.52,8.34,6.41,11.87,10.34,7.6,8.49,15,17.15,20.1,27.38.75,1.49,1.36,3,2,4.57l-48.5.08a46.9,46.9,0,0,0-11.92-11.92c-7.3-5.23-14.68-10.45-23.85-12.25l.2,0Z" transform="translate(0 -0.91)"/><path class="cls-7" d="M79.89,89.47c-6.65.64-9.33-1.29-11-8,1.13-4.61,3.58-7.88,8.81-8.33C83,74.4,86,77.44,85.71,83.06,85,86.23,82.78,88.16,79.89,89.47Z" transform="translate(0 -0.91)"/><path class="cls-7" d="M287.1,50.09c1.7-.7,2.2-3,4.4-3.08,2.66-.13,5.35-.14,7,2.18s.73,4.87-.7,7.15c-5.27,2.75-8,1.64-9.84-3.94C287.75,51.62,287.4,50.86,287.1,50.09Z" transform="translate(0 -0.91)"/><path class="cls-7" d="M115.86,56.39c-1.55-2.72-2.84-5.48-.2-8.26,3.13-3.3,7.28-1.89,9.82,1.8a5.46,5.46,0,0,1-2.71,6.44C120.78,57.56,118.16,58.53,115.86,56.39Z" transform="translate(0 -0.91)"/><path class="cls-6" d="M95.62,248.18q-.16-16-.32-32c1.25,0,2.49.08,3.73.08l219.33,0c.44,10.64.29,21.27-.09,31.9-13.07.06-26.15.17-39.22.16Q187.33,248.29,95.62,248.18Zm20.47-31-.13.4H293.61v-.4Z" transform="translate(0 -0.91)"/><path class="cls-1" d="M318,216.2l-219.32,0c-1.25,0-2.49,0-3.74-.08q.18-14,.35-27.91c6.37-1.83,12.93-1,19.41-1.32l15.64.09c1.19,1,2.61.65,3.95.65q72,0,144,0c1.33,0,2.77.36,3.92-.68l11.92-.13,23.89.21Q318.05,201.64,318,216.2Z" transform="translate(0 -0.91)"/><path class="cls-8" d="M95.7,175.12c-.09-6.9-.63-13.81,0-20.71,1.49-.11,3-.31,4.45-.31L318.28,154l.3.74,0,10.3c0,1.69,0,3.37,0,5.05v1.53c-.07.7-.15,1.4-.23,2.1-.25,0-.5.07-.75.07q-108,0-216,0c-1.54,0-2.73-.76-3.95-1.1Z" transform="translate(0 -0.91)"/><path class="cls-5" d="M318.38,280.1c1.38,1.86.55,3.94.58,5.91q.1,6-.1,12.09c-.16,5-1.35,6.22-6.52,6.23-17.18,0-34.37,0-51.55,0-51.55,0-103.1-.11-154.65.11-10.32.05-11.16-1.62-10.73-10.78.13-2.8-.13-5.61-.21-8.41H317.71C318.73,283.26,318.24,281.65,318.38,280.1Z" transform="translate(0 -0.91)"/><path class="cls-9" d="M95.62,248.18q91.71.09,183.43.15c13.07,0,26.15-.1,39.22-.16v18.92c-1.27,1.14-2.71.71-4,.71q-106.65.06-213.31.07c-5.41,0-5.42,0-5.41-5.41C95.54,257.7,95.59,252.94,95.62,248.18Z" transform="translate(0 -0.91)"/><path class="cls-4" d="M95.7,175.12l2-2.41c1.22.34,2.41,1.1,3.95,1.1q108-.06,216,0c.25,0,.5-.05.75-.07,0,3.93,0,7.87,0,11.8l-23.8.13-47.87-.09c-12.17-.05-24.33-.15-36.49-.14-19.73,0-39.46.1-59.2.15l-35.94.08-19.33-.29Q95.69,180.25,95.7,175.12Z" transform="translate(0 -0.91)"/><path class="cls-7" d="M318.28,154l-218.18.08c-1.48,0-3,.2-4.45.31-.28-3.63-.56-7.26-.87-11.25h223.5Z" transform="translate(0 -0.91)"/><path class="cls-10" d="M318.38,280.1c-.14,1.55.35,3.16-.67,5.14H95.2V279.8h16.64q95.26,0,190.52.08C307.7,279.88,313.05,279.38,318.38,280.1Z" transform="translate(0 -0.91)"/><path class="cls-4" d="M199.4,101c2.87-3.29,6.93-2.36,10.09-1.65,6.72,1.5,12.25,5.06,14.28,12.23,1.92,6.75.58,13-4.39,17.76-3.44,3.26-8.57,3.87-13.51,3.95-5.34.08-10-1.36-13.73-5.15s-5-8.59-4.39-13.79c.12-1-.06-2.68,1.92-2.52.67.71,1.31,1.44,2,2.14a7.33,7.33,0,0,0,9.72,1.14,7.47,7.47,0,0,0,2.43-9.37C202.9,103.56,200.61,102.77,199.4,101Z" transform="translate(0 -0.91)"/><path class="cls-7" d="M199.4,101c1.21,1.81,3.5,2.6,4.42,4.74a7.47,7.47,0,0,1-2.43,9.37,7.33,7.33,0,0,1-9.72-1.14c-.69-.7-1.33-1.43-2-2.14C189.26,106,192.75,102.14,199.4,101Z" transform="translate(0 -0.91)"/><path class="cls-11" d="M294.53,185.67l23.79-.13.09,1.6-23.9-.21C294.52,186.51,294.52,186.09,294.53,185.67Z" transform="translate(0 -0.91)"/><path class="cls-11" d="M95.69,185.38l19.33.29c0,.44,0,.88,0,1.33-6.48.28-13-.51-19.42,1.31A4.34,4.34,0,0,1,95.69,185.38Z" transform="translate(0 -0.91)"/><path class="cls-12" d="M318.55,165.06l0-10.3A19.07,19.07,0,0,1,318.55,165.06Z" transform="translate(0 -0.91)"/><path class="cls-12" d="M318.54,171.64v-1.53A.87.87,0,0,1,318.54,171.64Z" transform="translate(0 -0.91)"/><path class="cls-7" d="M234.82,106.74l.62.46C234.88,107.51,234.84,107.14,234.82,106.74Z" transform="translate(0 -0.91)"/><path class="cls-13" d="M379.56,293.93c3.29,0,6.91,3.44,7,6.68.1,3.7-3.63,7.24-7.61,7.24a6.06,6.06,0,0,1-6.07-6.06C372.82,298.63,376.8,293.94,379.56,293.93Z" transform="translate(0 -0.91)"/><path class="cls-14" d="M116.09,217.2H293.61v.4H116Z" transform="translate(0 -0.91)"/><path class="cls-15" d="M151,185.59c19.74-.05,39.47-.14,59.2-.15,12.16,0,24.32.09,36.49.14.53,2.18,2.36,1.36,3.66,1.37,10.76.09,21.53.08,32.29.11-1.16,1.05-2.6.68-3.92.68q-72,0-144,0c-1.33,0-2.76.32-3.94-.65,5.66,0,11.32,0,17-.12C148.9,186.94,150.53,187.56,151,185.59Z" transform="translate(0 -0.91)"/><path class="cls-16" d="M282.6,187.06c-10.76,0-21.53,0-32.29-.11-1.3,0-3.13.81-3.66-1.37l47.87.09c0,.42,0,.84,0,1.26Z" transform="translate(0 -0.91)"/><path class="cls-16" d="M151,185.59c-.43,2-2.06,1.35-3.29,1.37-5.65.09-11.31.09-17,.12L115.06,187c0-.45,0-.89,0-1.33Z" transform="translate(0 -0.91)"/></svg>